<svg xmlns="http://www.w3.org/2000/svg" viewBox="0 0 423.76 79.03"><path d="m95.26 42.9-3-1.74-3-1.74-5.45-3.14-2.13-1.23-1.27-.73-2.54-1.47V12.3l-.32-.18-3.08-1.78-3.29-1.89-5.5-3.17-2.94-1.7-2.9-1.68L56.8.15 56.54 0 56 .33 53.78 1.6l-3.17 1.82-.15.09-2.87 1.66-8.84 5.1-11.7-6.75-2.76-1.59-.13-.08-.53-.31L21 .05l-2.55 1.49-.14.09-.35.2-3.06 1.76L12 5.27 6.62 8.38l-3.05 1.76-.32.18L.29 12l-.29.2v23.67l6.35 3.66.27.16 8.5 4.91L18 46.24v20.68l.44.25 2.54 1.47 3.35 1.94h.05l8.45 4.88 3 1.75 2.48 1.42.38.22.38-.22 5.81-3.35 1.81-1 3.79-2.19 6.11-3.53.23.13 8.72 5 2.92 1.69L74.75 79l6.31-3.64 2.57-1.49 2.5-1.44 3.11-1.8.11-.06 3.28-1.9L95.54 67l.21-.13V43.18Zm-29.74-6.73L57.09 41l-.29-.17-6.34-3.65-2.32-1.35-2.86-1.65 5.18-3 3.26-1.88 2.9-1.67.18.1 2.68 1.54 9 5.17Zm-38 8.31 8.29-4.79 3.29-1.89 2.9 1.64 8.51 4.92v.5l-2.85 1.65-8.29 4.78-8.95-5.16Zm2.19-29-5.42 3.13-3 1.74-3.29-1.9-8.43-4.84L18 8.77h.05l2.9-1.68 3.38 2 8.32 4.81ZM12.65 35.9l-2.94-1.7-3.09-1.79V19l8.47 4.89 2.91 1.7 3.32 1.92 2.9-1.68h.1l3.18-1.84 8.44-4.87 2.9-1.68 3.41-2L45 13.85l4.83-2.79.68-.39 3.33-1.92L56.8 7h.07l2.88 1.7 8.77 5.06 2.66 1.54V29l-5.57-3.22-2.85-1.65-3-1.74-2.96-1.69v-.16l-.14.08-2.73 1.58-3.41 2h-.06v.07l-2.84 1.64-8.44 4.79-3.27 1.89L33 34.27l-3.29 1.9-5.42 3.13-2.87 1.7L18 39Zm50.23 29 8.29-4.8 3.27-1.89 3.4 2 5.55 3.21 2.93 1.68L83 67l-5.19 3-3.1 1.8-2.92-1.69-.65-.37Zm26.36-5.3-8.6-5-2.79-1.6h-.06l-3-1.75-3.28 1.9-.31.18-2.6 1.5-3.3 1.88L57 61.5l-.2.12-6.1 3.52-.24.14-6.72 3.88L39 71.9 30.53 67l-3.4-2-2.84-1.64V49.9l8.73 5 3.75 2.17 2.08 1.2 6.3-3.64 5.31-3.06 3-1.73L56.73 48h.07v-.08l2.84-1.64 3.28-1.9 8.26-4.76.18-.11 2.9-1.67 3.39 2 .2.12 8.25 4.74 3 1.74.11.07V59.6Zm47.99-14.09a9.63 9.63 0 0 1-1 4.69 8.54 8.54 0 0 1-2.81 3 12 12 0 0 1-4 1.68 21.44 21.44 0 0 1-4.65.5c-.85 0-1.74 0-2.68-.07s-1.86-.13-2.78-.26-1.78-.3-2.61-.5a13.24 13.24 0 0 1-2.17-.69 1.18 1.18 0 0 1-.74-1.38l.27-1.39c.09-.44.25-.71.5-.8a2.23 2.23 0 0 1 1-.07q1 .14 2.31.27c.87.09 1.74.17 2.61.23s1.7.13 2.48.17 1.46.07 2 .07c2.5 0 4.29-.39 5.39-1.17a4.29 4.29 0 0 0 1.64-3.73 9.37 9.37 0 0 0-.27-2.45 3.06 3.06 0 0 0-1-1.58 5.22 5.22 0 0 0-2-.93c-.85-.23-1.94-.45-3.28-.68a42.09 42.09 0 0 1-4.39-.87 13.09 13.09 0 0 1-3.71-1.54 7.79 7.79 0 0 1-2.58-2.62 8.08 8.08 0 0 1-1-4.23 8.55 8.55 0 0 1 3.11-7.14c2.08-1.63 4.92-2.45 8.54-2.45.67 0 1.43 0 2.27.07s1.73.12 2.65.23a27.4 27.4 0 0 1 2.71.47 17.86 17.86 0 0 1 2.41.7 1.11 1.11 0 0 1 .67 1.41l-.27 1.6a.85.85 0 0 1-.57.67 3 3 0 0 1-1.17.07l-4.35-.43a42.19 42.19 0 0 0-4.42-.24q-3.75 0-5.09 1.14a4.69 4.69 0 0 0-1.34 3.75 5 5 0 0 0 .34 2 2.66 2.66 0 0 0 1.11 1.2 7.16 7.16 0 0 0 2.11.77c.9.2 2 .42 3.36.64s2.92.5 4.31.83a11.22 11.22 0 0 1 3.66 1.58 7.86 7.86 0 0 1 2.52 2.81 9.81 9.81 0 0 1 .91 4.67Zm27.31 5.76a50.61 50.61 0 0 1-5.54 2.81 17.47 17.47 0 0 1-7 1.34q-4.89 0-7-2.35t-2.07-6.89c0-3.79 1-6.62 2.88-8.47s5.11-2.78 9.57-2.78h9.24v-2.28c0-2.45-.57-4.15-1.71-5.08s-3.18-1.41-6.12-1.41h-2.11c-.78 0-1.6.07-2.45.14l-2.54.2c-.85.07-1.63.14-2.34.23s-1.21-.06-1.34-.6l-.4-1.74a.88.88 0 0 1 .1-.8 2.27 2.27 0 0 1 1-.67 17.88 17.88 0 0 1 2.41-.61c.93-.17 1.92-.32 2.94-.43s2-.19 3-.23 1.91-.07 2.71-.07a19.26 19.26 0 0 1 6.41.87 8.16 8.16 0 0 1 3.64 2.41 7.68 7.68 0 0 1 1.6 3.75 33.19 33.19 0 0 1 .33 4.89v14.82a9.72 9.72 0 0 0 .1 1.54 1.61 1.61 0 0 0 .34.8 1.21 1.21 0 0 0 .7.37 9.15 9.15 0 0 0 1.27.17q1.14.06 1.14.87v1.67a1.1 1.1 0 0 1-.27.77A1.82 1.82 0 0 1 172 55a14.6 14.6 0 0 1-2.34.2 5.67 5.67 0 0 1-3.49-.87 4.5 4.5 0 0 1-1.46-3Zm.07-12.12h-9.84a7.81 7.81 0 0 0-4.89 1.4c-1.2.94-1.81 2.75-1.81 5.43q0 2.81 1.11 3.81c.73.67 2.08 1 4 1a12.6 12.6 0 0 0 2.78-.34 22.7 22.7 0 0 0 3-.9c1-.38 2-.79 3-1.24a27.84 27.84 0 0 0 2.65-1.31Zm59.03 15.73h-2.85a1 1 0 0 1-1.15-1.14V33.59a22.53 22.53 0 0 0-.23-3.48 5.72 5.72 0 0 0-.84-2.28A3.27 3.27 0 0 0 217 26.6a7.27 7.27 0 0 0-2.53-.37 9.06 9.06 0 0 0-2.63.43c-1 .29-1.93.64-2.9 1s-1.91.83-2.8 1.27-1.62.83-2.2 1.14c0 .27.07.72.1 1.34s0 1.38 0 2.28v20a1 1 0 0 1-1.15 1.14h-3c-.67 0-1-.38-1-1.14l.11-20.57a10.56 10.56 0 0 0-1-5.12c-.67-1.21-2-1.81-4.09-1.81a9.2 9.2 0 0 0-2.47.37 25.19 25.19 0 0 0-2.78.93c-1 .38-1.91.8-2.85 1.24s-1.78.87-2.54 1.27v23.7a1 1 0 0 1-1.14 1.14h-2.81c-.71 0-1.07-.38-1.07-1.14V23.42c0-.76.36-1.14 1.07-1.14H182q1.2 0 1.2 1.14v2.34h.07l2.25-1.34a24.87 24.87 0 0 1 2.68-1.37 19.22 19.22 0 0 1 3-1 12.25 12.25 0 0 1 3.15-.4 11 11 0 0 1 5.73 1.24 6.88 6.88 0 0 1 2.92 3.54 45 45 0 0 1 5.66-3.32 14.46 14.46 0 0 1 6.47-1.5 12.34 12.34 0 0 1 5.06.87 6.55 6.55 0 0 1 2.92 2.44 9.58 9.58 0 0 1 1.34 3.79 33.07 33.07 0 0 1 .34 4.88v20.15a1 1 0 0 1-1.15 1.14Zm36.17-16.6a40.34 40.34 0 0 1-.6 7.36A13.68 13.68 0 0 1 257.1 51a9.57 9.57 0 0 1-4 3.32 15.59 15.59 0 0 1-6.37 1.13 24.85 24.85 0 0 1-4.21-.4 24.32 24.32 0 0 1-5-1.47l-.07.07v11.74a1.55 1.55 0 0 1-.24 1 1.23 1.23 0 0 1-1 .31h-2.78c-.5 0-.82-.1-.95-.27a1.74 1.74 0 0 1-.21-1v-42a1 1 0 0 1 1.16-1.14h2.78a1 1 0 0 1 1.15 1.14v2.41l.2.13c.49-.31 1.15-.71 2-1.2a23.8 23.8 0 0 1 2.77-1.41 25.77 25.77 0 0 1 3.24-1.17 11.66 11.66 0 0 1 3.37-.5 11.14 11.14 0 0 1 5.24 1.1 8.38 8.38 0 0 1 3.33 3.21 15.45 15.45 0 0 1 1.76 5.19 41.54 41.54 0 0 1 .54 7.09Zm-5.29-.2a40 40 0 0 0-.37-6.13 10.05 10.05 0 0 0-1.15-3.58 3.65 3.65 0 0 0-1.9-1.67 8 8 0 0 0-2.67-.4 11.26 11.26 0 0 0-2.77.4 26 26 0 0 0-3.1 1c-1 .4-2 .83-2.9 1.27s-1.65.83-2.23 1.14v19.28a37.82 37.82 0 0 0 5.13 1.14 32 32 0 0 0 4.47.33 8.91 8.91 0 0 0 3.57-.63 5 5 0 0 0 2.3-2.14 11.22 11.22 0 0 0 1.23-4 41 41 0 0 0 .39-6.01Zm21.96 15.26a1.06 1.06 0 0 1-.67 1.14A10.64 10.64 0 0 1 274 55a9.32 9.32 0 0 1-1.84.2 8.1 8.1 0 0 1-2.74-.4 4.05 4.05 0 0 1-1.68-1.11 3.92 3.92 0 0 1-.83-1.74 9.93 9.93 0 0 1-.24-2.24V8.89a1 1 0 0 1 1.14-1.14h2.68a1.67 1.67 0 0 1 .9.2c.2.13.3.45.3.94v39.16c0 1.16.25 1.87.74 2.11a6.34 6.34 0 0 0 2.61.37c.72 0 1.1.22 1.14.67ZM308 36.4a5.44 5.44 0 0 1-.5 2.72 2.51 2.51 0 0 1-2.45 1.1h-18.87a25.75 25.75 0 0 0 .54 5 7.4 7.4 0 0 0 1.54 3.26 5.69 5.69 0 0 0 2.74 1.75 14 14 0 0 0 4 .5c.67 0 1.42 0 2.27-.1l2.55-.2c.84-.07 1.66-.14 2.44-.23s1.46-.18 2-.27a2.54 2.54 0 0 1 1 .06c.24.09.41.36.5.81l.27 1.49a1.1 1.1 0 0 1-.74 1.36 15.46 15.46 0 0 1-2.27.75c-.9.22-1.83.42-2.82.58s-2 .28-2.94.37-1.88.13-2.68.13a15.86 15.86 0 0 1-7.33-1.43 10.25 10.25 0 0 1-4.12-3.79 14.4 14.4 0 0 1-1.84-5.39 44.16 44.16 0 0 1-.43-6.26 40.42 40.42 0 0 1 .4-5.39 16 16 0 0 1 1.81-5.55 11.84 11.84 0 0 1 4.08-4.32 13.27 13.27 0 0 1 7.3-1.74 15.82 15.82 0 0 1 6.89 1.27 10.24 10.24 0 0 1 4.05 3.35 12.08 12.08 0 0 1 1.98 4.77 39.3 39.3 0 0 1 .63 5.4Zm-5.42-.4a21 21 0 0 0-.3-3.51 8.73 8.73 0 0 0-1.18-3.18 6.42 6.42 0 0 0-2.46-2.31 9 9 0 0 0-4.29-.87 8.87 8.87 0 0 0-3.71.7 6.29 6.29 0 0 0-2.45 2 8.91 8.91 0 0 0-1.4 3.08 20.76 20.76 0 0 0-.61 4.08Zm29.8 16.77a1.29 1.29 0 0 1-.6 1.29 6.19 6.19 0 0 1-1.58.58c-.64.16-1.33.29-2.07.4s-1.45.21-2.14.28-1.29.1-1.78.1a10.83 10.83 0 0 1-3.55-.5 5.16 5.16 0 0 1-2.2-1.44 5.46 5.46 0 0 1-1.14-2.25 11.39 11.39 0 0 1-.34-2.91V26.5h-3.68a1 1 0 0 1-1.14-1.14v-1.88q0-1.2 1.14-1.2h3.75v-7.23a1.12 1.12 0 0 1 .3-.87 1.94 1.94 0 0 1 .84-.4l2.68-.74c.75-.22 1.13.11 1.13 1v8.24h7.43c.5 0 .81.1.94.3a1.45 1.45 0 0 1 .2.84v1.94a1.43 1.43 0 0 1-.2.87c-.13.18-.44.27-.94.27H322v20.22a9.09 9.09 0 0 0 .17 1.94 2.21 2.21 0 0 0 .7 1.2 3 3 0 0 0 1.44.64 14.45 14.45 0 0 0 2.45.16c.35 0 1 0 1.84-.1l2-.16a1.92 1.92 0 0 1 1.07.1 1.11 1.11 0 0 1 .4.71Zm29.99-16.37a5.33 5.33 0 0 1-.5 2.72 2.49 2.49 0 0 1-2.44 1.1h-18.88a25.07 25.07 0 0 0 .53 5 7.4 7.4 0 0 0 1.54 3.26 5.74 5.74 0 0 0 2.71 1.73 14 14 0 0 0 4 .5c.67 0 1.43 0 2.27-.1l2.55-.2c.85-.07 1.66-.14 2.44-.23s1.46-.18 2-.27a2.52 2.52 0 0 1 1 .06c.25.09.41.36.5.81l.27 1.49a1.1 1.1 0 0 1-.74 1.36 15.46 15.46 0 0 1-2.27.75c-.89.22-1.83.42-2.81.58s-2 .28-2.95.37-1.87.13-2.68.13a15.86 15.86 0 0 1-7.33-1.43 10.25 10.25 0 0 1-4.12-3.79 14.4 14.4 0 0 1-1.84-5.39 44.16 44.16 0 0 1-.43-6.26 40.42 40.42 0 0 1 .4-5.39 16 16 0 0 1 1.81-5.55 12 12 0 0 1 4.08-4.32 13.3 13.3 0 0 1 7.3-1.74 15.86 15.86 0 0 1 6.9 1.27 10.24 10.24 0 0 1 4.05 3.35 12.39 12.39 0 0 1 2.01 4.79 40.88 40.88 0 0 1 .63 5.4ZM357 36a21 21 0 0 0-.3-3.51 8.72 8.72 0 0 0-1.17-3.18A6.45 6.45 0 0 0 353 27a9 9 0 0 0-4.28-.87 8.88 8.88 0 0 0-3.72.7 6.26 6.26 0 0 0-2.44 2 8.74 8.74 0 0 0-1.41 3.08 21.57 21.57 0 0 0-.6 4.08Zm34.5 17.88a15.6 15.6 0 0 1-4.72 1.2 44.94 44.94 0 0 1-5.39.34 15.82 15.82 0 0 1-7.07-1.34 9.93 9.93 0 0 1-4.08-3.68 13.84 13.84 0 0 1-1.87-5.4 45.88 45.88 0 0 1-.44-6.62 42.11 42.11 0 0 1 .44-6.23 13.79 13.79 0 0 1 1.87-5.36 10.44 10.44 0 0 1 4.08-3.79 15.23 15.23 0 0 1 7.07-1.4c.67 0 1.45 0 2.34.07s1.8.12 2.71.23a26.9 26.9 0 0 1 2.71.47 13.13 13.13 0 0 1 2.41.77.9.9 0 0 1 .64.6 1.81 1.81 0 0 1 0 .8l-.2 1.55a.85.85 0 0 1-.63.67 2.88 2.88 0 0 1-1.11.07l-4.58-.43q-2.52-.24-4.32-.24a9.93 9.93 0 0 0-3.82.64 5.17 5.17 0 0 0-2.44 2 10.12 10.12 0 0 0-1.31 3.71 35.12 35.12 0 0 0-.4 5.73 39.14 39.14 0 0 0 .4 6.09 10.2 10.2 0 0 0 1.34 3.85 5.13 5.13 0 0 0 2.48 2 10.38 10.38 0 0 0 3.75.6c.54 0 1.19 0 2-.06s1.59-.1 2.41-.17l2.52-.2c.84-.07 1.6-.14 2.27-.23a2.1 2.1 0 0 1 1 .06c.25.09.41.36.5.81l.27 1.4a1.18 1.18 0 0 1-.83 1.49Zm31.06 1h-2.81a1 1 0 0 1-1.14-1.14l.07-20.42a18.8 18.8 0 0 0-.27-3.51 5 5 0 0 0-.91-2.18 3.22 3.22 0 0 0-1.67-1.1 9.42 9.42 0 0 0-2.58-.3 10 10 0 0 0-2.81.47c-1.07.31-2.14.67-3.21 1.07s-2.08.81-3 1.24-1.66.77-2.15 1v23.7q0 1.14-1.2 1.14h-2.75c-.71 0-1.07-.38-1.07-1.14V8.82c0-.76.36-1.14 1.07-1.14h2.75q1.2 0 1.2 1.14v17l.07.06c.54-.35 1.24-.78 2.11-1.27a27.63 27.63 0 0 1 2.88-1.4 23.82 23.82 0 0 1 3.34-1.14 14.15 14.15 0 0 1 3.59-.47 11.89 11.89 0 0 1 5.19.94 6.84 6.84 0 0 1 2.91 2.57 9.92 9.92 0 0 1 1.3 3.92 38.05 38.05 0 0 1 .3 5v19.71q-.01 1.14-1.21 1.14Z" style="fill:#4d63f4"/></svg>