<svg xmlns="http://www.w3.org/2000/svg" viewBox="0 0 95.75 79.03"><path d="m95.26 42.9-3-1.74-3-1.74-5.45-3.14-2.13-1.23-1.27-.73-2.54-1.47V12.3l-.32-.18-3.08-1.78-3.29-1.89-5.5-3.17-2.94-1.7-2.9-1.68L56.8.15 56.54 0 56 .33 53.78 1.6l-3.17 1.82-.15.09-2.87 1.66-8.84 5.1-11.7-6.75-2.76-1.59-.13-.08-.53-.31L21 .05l-2.55 1.49-.14.09-.35.2-3.06 1.76L12 5.27 6.62 8.38l-3.05 1.76-.32.18L.29 12l-.29.2v23.67l6.35 3.66.27.16 8.5 4.91L18 46.24v20.68l.44.25 2.54 1.47 3.35 1.94h.05l8.45 4.88 3 1.75 2.48 1.42.38.22.38-.22 5.81-3.35 1.81-1 3.79-2.19 6.11-3.53.23.13 8.72 5 2.92 1.69L74.75 79l6.31-3.64 2.57-1.49 2.5-1.44 3.11-1.8.11-.06 3.28-1.9L95.54 67l.21-.13V43.18Zm-29.74-6.73L57.09 41l-.29-.17-6.34-3.65-2.32-1.35-2.86-1.65 5.18-3 3.26-1.88 2.9-1.67.18.1 2.68 1.54 9 5.17Zm-38 8.31 8.29-4.79 3.29-1.89 2.9 1.64 8.51 4.92v.5l-2.85 1.65-8.29 4.78-8.95-5.16Zm2.19-29-5.42 3.13-3 1.74-3.29-1.9-8.43-4.84L18 8.77h.05l2.9-1.68 3.38 2 8.32 4.81ZM12.65 35.9l-2.94-1.7-3.09-1.79V19l8.47 4.89 2.91 1.7 3.32 1.92 2.9-1.68h.1l3.18-1.84 8.44-4.87 2.9-1.68 3.41-2L45 13.85l4.83-2.79.68-.39 3.33-1.92L56.8 7h.07l2.88 1.7 8.77 5.06 2.66 1.54V29l-5.57-3.22-2.85-1.65-3-1.74-2.96-1.69v-.16l-.14.08-2.73 1.58-3.41 2h-.06v.07l-2.84 1.64-8.44 4.79-3.27 1.89L33 34.27l-3.29 1.9-5.42 3.13-2.87 1.7L18 39Zm50.23 29 8.29-4.8 3.27-1.89 3.4 2 5.55 3.21 2.93 1.68L83 67l-5.19 3-3.1 1.8-2.92-1.69-.65-.37Zm26.36-5.3-8.6-5-2.79-1.6h-.06l-3-1.75-3.28 1.9-.31.18-2.6 1.5-3.3 1.88L57 61.5l-.2.12-6.1 3.52-.24.14-6.72 3.88L39 71.9 30.53 67l-3.4-2-2.84-1.64V49.9l8.73 5 3.75 2.17 2.08 1.2 6.3-3.64 5.31-3.06 3-1.73L56.73 48h.07v-.08l2.84-1.64 3.28-1.9 8.26-4.76.18-.11 2.9-1.67 3.39 2 .2.12 8.25 4.74 3 1.74.11.07V59.6Z" style="fill:#4d63f4"/></svg>