<svg xmlns="http://www.w3.org/2000/svg" xmlns:xlink="http://www.w3.org/1999/xlink" viewBox="0 0 46 85" fill="#fff" fill-rule="evenodd" stroke="#000" stroke-linecap="round" stroke-linejoin="round"><use xlink:href="#a" x=".5" y=".5"/><symbol id="a" overflow="visible"><g stroke="none" fill-rule="nonzero"><path d="M13.931 45.22s-2.246 1.367 1.563 1.758c4.6.586 7.032.488 12.1-.488 0 0 1.367.88 3.223 1.563-11.418 4.883-25.872-.293-16.886-2.833zm-1.465-6.348s-2.442 1.856 1.367 2.246c4.98.488 8.888.586 15.627-.78 0 0 .88.977 2.344 1.465-13.77 4.102-29.202.4-19.338-2.93zm26.956 11.134s1.66 1.367-1.856 2.442c-6.544 1.953-27.444 2.54-33.304 0-2.05-.88 1.856-2.15 3.125-2.344 1.27-.293 1.953-.293 1.953-.293-2.246-1.563-14.943 3.223-6.446 4.6 23.342 3.8 42.583-1.66 36.527-4.395zM15.005 32.23s-10.646 2.54-3.8 3.418c2.93.4 8.692.293 14.064-.098 4.395-.4 8.8-1.172 8.8-1.172s-1.563.684-2.637 1.367C20.572 38.58-.231 37.3 5.727 34.38c5.08-2.442 9.278-2.15 9.278-2.15zm19.044 10.646c10.95-5.666 5.85-11.134 2.344-10.45-.88.195-1.27.4-1.27.4s.293-.586.977-.78c6.934-2.442 12.404 7.325-2.246 11.134 0 0 .098-.098.195-.293zm-17.97 15.43c10.548.684 26.663-.4 27.054-5.372 0 0-.78 1.953-8.692 3.418-8.985 1.66-20.12 1.465-26.663.4 0 0 1.367 1.172 8.302 1.563z" fill="#4e7896"/><path d="M27.399 0s6.055 6.153-5.762 15.43c-9.474 7.52-2.15 11.818 0 16.7-5.567-4.98-9.57-9.376-6.837-13.478C18.814 12.6 29.849 9.67 27.399 0zm-3.125 28.03c2.832 3.223-.78 6.153-.78 6.153s7.227-3.7 3.907-8.302c-3.028-4.395-5.372-6.544 7.325-13.87 0 0-20.022 4.98-10.45 16.017z" fill="#f58219"/><path d="M19.234 79.215v-9.57c0-2.442-1.367-4.102-4.786-4.102-1.953 0-3.614.488-5.08 1.074l.488 1.758c1.074-.4 2.442-.78 3.907-.78 1.856 0 2.735.78 2.735 2.344v1.27h-.977c-4.688 0-6.837 1.758-6.837 4.6 0 2.344 1.465 3.7 4.102 3.7 1.66 0 2.93-.78 4.102-1.758l.195 1.465h2.15zM16.499 76.1c-.977.88-2.05 1.367-3.028 1.367-1.27 0-2.05-.78-2.05-2.15s.78-2.344 3.907-2.344h1.17v3.125zm11.915 3.125h-3.418l-4.102-13.38h2.93l2.54 8.204.586 2.442c1.27-3.516 2.246-7.13 2.637-10.646h2.93c-.78 4.395-2.15 9.18-4.102 13.38zm15.822 0v-9.57c0-2.442-1.367-4.102-4.786-4.102-1.953 0-3.614.488-5.08 1.074l.4 1.758c1.172-.4 2.54-.78 4.004-.78 1.856 0 2.735.78 2.735 2.344v1.27h-.977c-4.688 0-6.837 1.758-6.837 4.6 0 2.344 1.367 3.7 4.004 3.7 1.758 0 3.028-.78 4.2-1.758l.195 1.465h2.15zM41.501 76.1c-.977.88-2.05 1.367-3.028 1.367-1.27 0-2.05-.78-2.05-2.15s.78-2.344 3.907-2.344h1.172v3.125zM5.659 81.46c-.78 1.172-1.953 2.04-3.418 2.54l-1.27-1.563c.977-.586 1.953-1.465 2.344-2.246.4-.684.488-1.66.488-3.907V61.05h2.93V76.1c0 3.028-.293 4.2-1.074 5.372z" fill="#4e7896"/></g></symbol></svg>